<svg width="640" height="283" viewBox="0 0 640 283" fill="none" xmlns="http://www.w3.org/2000/svg">
<path d="M541.487 104.048C543.857 103.048 546.177 101.847 548.627 101.127C550.367 100.617 552.787 99.9573 554.047 100.747C557.507 102.907 554.817 105.728 553.347 107.258C547.857 113.018 541.837 118.268 536.267 123.948C535.087 125.148 534.377 127.358 534.407 129.088C534.437 131.688 536.967 131.718 538.827 131.718C555.457 131.658 572.087 131.387 588.727 131.387C601.357 131.387 613.997 131.577 626.627 131.887C630.587 131.987 634.407 132.648 637.757 135.468C640.117 137.458 639.087 139.397 637.837 140.227C631.687 144.287 624.707 146.187 617.467 147.387C592.507 151.497 567.297 153.227 542.127 155.267C538.817 155.537 535.427 155.147 532.167 155.627C528.417 156.177 526.377 158.827 526.677 162.627C527.507 173.277 532.957 181.377 541.277 187.637C548.177 192.837 555.307 197.727 562.237 202.897C563.677 203.967 565.317 205.698 563.037 207.448C562.167 208.118 560.287 208.498 559.437 208.008C549.127 202.078 538.927 195.967 528.277 189.647C523.437 193.017 526.507 198.038 525.767 202.108C524.937 206.678 524.837 211.377 523.917 215.917C523.127 219.807 522.037 223.757 520.307 227.307C518.277 231.447 515.767 235.477 512.797 238.997C509.967 242.347 507.717 246.887 502.287 247.117C499.037 244.377 501.077 241.098 501.547 238.198C503.357 227.038 505.457 215.927 507.467 204.807C507.997 201.887 507.087 199.668 504.507 198.218C504.807 200.058 505.717 200.597 507.087 199.657C507.477 199.387 507.517 198.617 507.727 198.077C506.737 198.307 505.747 198.537 504.747 198.767C499.117 201.097 499.017 209.468 491.717 210.528C488.127 204.908 494.517 199.148 491.207 193.218C487.037 192.988 485.317 196.667 483.377 199.457C478.827 205.997 474.457 212.678 470.357 219.508C460.967 235.148 448.347 247.758 433.997 258.738C412.677 275.038 388.627 283.057 361.697 282.887C332.337 282.707 303.487 277.857 274.507 274.127C265.947 273.027 257.367 271.938 248.867 270.488C244.517 269.748 238.787 269.587 242.327 262.057C243.007 260.607 240.597 259.058 238.597 258.818C196.997 253.808 160.557 233.538 122.067 219.318C120.847 218.868 119.467 218.347 118.657 217.417C117.497 216.087 116.397 214.427 116.077 212.747C115.927 211.977 117.497 210.438 118.607 209.948C123.427 207.788 128.417 205.987 133.227 203.807C134.867 203.057 137.297 201.617 137.377 200.367C137.587 196.917 134.387 196.838 131.857 196.468C108.087 193.038 85.4273 185.288 62.5473 178.448C50.3773 174.808 38.1974 172.297 25.4074 172.117C17.8974 172.007 11.0773 174.467 3.91728 175.577C2.71728 175.767 0.457385 175.367 0.277385 174.767C-0.212615 173.117 0.0673163 171.208 0.207316 169.408C0.257316 168.798 0.637321 168.097 1.08732 167.647C17.3073 151.117 31.5373 132.577 51.1873 119.537C68.9073 107.777 86.5773 96.1377 106.467 88.0877C125.657 80.3177 145.377 74.8377 165.707 71.3177C173.047 73.2877 180.117 69.8774 184.717 69.7674C181.117 67.3774 173.287 69.6875 167.767 64.3475C168.767 60.6475 171.537 59.1375 175.017 58.6175C182.867 57.4375 190.737 56.3172 198.877 55.1272C200.707 51.5472 196.427 49.7974 196.407 46.8274C196.387 43.5874 198.607 41.6177 200.837 41.1077C215.247 37.8077 227.837 30.0276 241.517 25.0076C258.337 18.8376 275.287 13.0075 292.237 7.17751C296.617 5.66751 301.157 4.58757 305.667 3.48757C334.237 -3.49244 361.097 -0.582593 385.197 17.5774C389.947 21.1574 392.237 21.2574 394.347 14.6174C395.767 10.1474 402.207 14.6373 404.957 12.4373C411.127 7.47727 416.597 8.91748 423.187 11.4075C444.977 19.6375 462.857 32.8575 476.427 51.6975C483.407 61.3875 489.787 71.5273 496.397 81.4773C498.147 84.1173 498.737 87.7973 502.997 88.4173C507.987 83.7573 500.157 73.2976 510.507 70.9876C516.817 75.5176 514.547 82.8672 516.297 88.8772C517.037 91.4072 516.997 94.1473 517.527 96.7473C518.157 99.8473 518.177 104.258 522.497 103.858C525.727 103.558 528.127 99.9276 528.577 96.8176C529.427 90.9776 529.127 84.9776 529.557 79.0676C529.637 78.0276 530.867 76.3176 531.687 76.2576C533.487 76.1076 536.227 76.1574 537.047 77.2674C538.947 79.8274 541.047 83.0674 541.067 86.0374C541.087 91.2474 539.607 96.4573 538.757 101.667C537.787 103.097 536.237 104.868 538.027 106.198C539.887 107.578 541.097 106.038 541.487 104.048ZM613.117 142.957C620.347 145.137 626.057 143.107 631.167 137.077C625.857 135.247 621.437 135.037 616.957 136.367C611.067 135.997 605.177 135.297 599.277 135.307C567.647 135.387 536.027 135.738 504.397 135.798C481.967 135.838 459.647 137.267 437.437 140.367C430.157 140.547 422.837 140.318 415.607 140.988C357.157 146.398 298.687 143.897 240.237 141.497C205.697 140.077 171.187 137.988 136.647 136.528C125.397 136.048 114.287 136.388 103.837 142.408C97.5273 146.038 88.1873 144.128 90.5573 141.218C94.0873 136.888 99.1774 138.728 103.537 138.448C109.477 138.068 115.477 138.918 121.457 138.928C144.747 138.968 167.727 142.797 190.877 144.477C212.757 146.057 234.657 147.497 256.457 149.877C291.627 153.717 326.807 154.857 361.957 150.637C383.147 148.087 404.377 147.468 425.647 146.968C429.607 146.878 433.547 146.297 437.497 145.937C467.147 147.187 496.787 149.307 526.437 149.437C555.417 149.587 584.467 148.397 613.117 142.957Z" fill="white"/>
<path d="M167.767 64.3578C173.297 69.6978 181.127 67.3778 184.717 69.7778C180.117 69.8778 173.047 73.2976 165.707 71.3276C165.647 68.7776 165.157 66.1178 167.767 64.3578Z" fill="#323232"/>
<path d="M437.487 145.958C433.537 146.308 429.597 146.888 425.637 146.988C404.367 147.488 383.137 148.108 361.947 150.658C326.797 154.878 291.627 153.738 256.447 149.898C234.647 147.518 212.747 146.078 190.867 144.498C167.707 142.828 144.737 138.988 121.447 138.948C115.467 138.938 109.467 138.098 103.527 138.468C99.1672 138.748 94.0771 136.898 90.5471 141.238C88.1771 144.148 97.5171 146.058 103.827 142.428C114.277 136.408 125.387 136.068 136.637 136.548C171.177 138.008 205.687 140.098 240.227 141.518C298.687 143.918 357.157 146.418 415.597 141.008C422.827 140.338 430.147 140.568 437.427 140.388C437.457 142.238 437.477 144.098 437.487 145.958Z" fill="#323232"/>
<path d="M437.487 145.958C437.467 144.098 437.457 142.237 437.437 140.377C459.647 137.277 481.967 135.848 504.397 135.808C536.027 135.748 567.647 135.398 599.277 135.318C605.167 135.308 611.057 136.007 616.957 136.377C615.677 138.577 614.397 140.768 613.117 142.958C584.467 148.398 555.417 149.588 526.427 149.458C496.777 149.328 467.137 147.208 437.487 145.958Z" fill="black"/>
</svg>
