<svg width="640" height="283" viewBox="0 0 640 283" fill="none" xmlns="http://www.w3.org/2000/svg">
<path d="M97.6865 178.842C95.3165 179.842 92.9966 181.043 90.5466 181.763C88.8066 182.273 86.3864 182.933 85.1264 182.143C81.6664 179.983 84.3563 177.162 85.8263 175.632C91.3163 169.872 97.3364 164.623 102.906 158.943C104.086 157.743 104.797 155.532 104.767 153.802C104.737 151.202 102.206 151.173 100.346 151.173C83.7164 151.233 67.0865 151.503 50.4465 151.503C37.8165 151.503 25.1766 151.313 12.5466 151.003C8.58656 150.903 4.76644 150.243 1.41644 147.423C-0.943563 145.433 0.0863585 143.493 1.33636 142.663C7.48636 138.603 14.4665 136.703 21.7065 135.503C46.6665 131.393 71.8766 129.663 97.0466 127.623C100.357 127.353 103.747 127.743 107.007 127.263C110.757 126.713 112.797 124.063 112.497 120.263C111.667 109.613 106.216 101.513 97.8964 95.2526C90.9964 90.0526 83.8665 85.1629 76.9365 79.9929C75.4965 78.9229 73.8564 77.1926 76.1364 75.4426C77.0064 74.7726 78.8865 74.3925 79.7365 74.8825C90.0465 80.8125 100.246 86.9229 110.896 93.2429C115.736 89.8729 112.666 84.8524 113.406 80.7824C114.236 76.2124 114.337 71.5128 115.257 66.9728C116.047 63.0828 117.136 59.1327 118.866 55.5827C120.896 51.4427 123.406 47.4128 126.376 43.8928C129.206 40.5428 131.456 36.0026 136.886 35.7726C140.136 38.5126 138.096 41.7926 137.626 44.6926C135.816 55.8526 133.716 66.9627 131.706 78.0827C131.176 81.0027 132.086 83.2225 134.666 84.6725C134.366 82.8325 133.456 82.2926 132.086 83.2326C131.696 83.5026 131.656 84.2727 131.446 84.8127C132.436 84.5827 133.426 84.3527 134.426 84.1227C140.056 81.7927 140.156 73.4225 147.456 72.3625C151.046 77.9825 144.656 83.7425 147.966 89.6725C152.136 89.9025 153.857 86.2228 155.797 83.4328C160.347 76.8928 164.717 70.2125 168.817 63.3825C178.207 47.7425 190.826 35.1325 205.176 24.1525C226.496 7.85253 250.547 -0.167371 277.477 0.00263064C306.837 0.182632 335.686 5.03289 364.666 8.76289C373.226 9.86289 381.806 10.9525 390.306 12.4025C394.656 13.1425 400.387 13.3027 396.847 20.8327C396.167 22.2827 398.576 23.8325 400.576 24.0725C442.176 29.0825 478.617 49.3525 517.107 63.5725C518.327 64.0225 519.706 64.5429 520.516 65.4729C521.676 66.8029 522.777 68.4628 523.097 70.1428C523.247 70.9128 521.676 72.4526 520.566 72.9426C515.746 75.1026 510.756 76.9027 505.946 79.0827C504.306 79.8327 501.876 81.2727 501.796 82.5227C501.586 85.9727 504.786 86.0526 507.316 86.4226C531.086 89.8526 553.747 97.6026 576.627 104.443C588.797 108.083 600.976 110.593 613.766 110.773C621.276 110.883 628.097 108.423 635.257 107.313C636.457 107.123 638.716 107.523 638.896 108.123C639.386 109.773 639.107 111.683 638.967 113.483C638.917 114.093 638.536 114.793 638.086 115.243C621.866 131.773 607.637 150.313 587.987 163.353C570.267 175.113 552.596 186.752 532.706 194.802C513.516 202.572 493.796 208.052 473.466 211.572C466.126 209.602 459.056 213.013 454.456 213.123C458.056 215.513 465.886 213.203 471.406 218.543C470.406 222.243 467.636 223.753 464.156 224.273C456.306 225.453 448.436 226.573 440.296 227.763C438.466 231.343 442.746 233.093 442.766 236.063C442.786 239.303 440.566 241.272 438.336 241.782C423.926 245.082 411.336 252.863 397.656 257.883C380.836 264.053 363.886 269.883 346.936 275.713C342.556 277.223 338.017 278.303 333.507 279.403C304.937 286.383 278.076 283.473 253.976 265.313C249.226 261.733 246.936 261.633 244.826 268.273C243.406 272.743 236.966 268.253 234.216 270.453C228.046 275.413 222.576 273.973 215.986 271.483C194.196 263.253 176.317 250.033 162.747 231.193C155.767 221.503 149.387 211.363 142.777 201.413C141.027 198.773 140.436 195.093 136.176 194.473C131.186 199.133 139.016 209.593 128.666 211.903C122.356 207.373 124.626 200.023 122.876 194.013C122.136 191.483 122.176 188.743 121.646 186.143C121.016 183.043 120.996 178.632 116.676 179.032C113.446 179.332 111.046 182.962 110.596 186.072C109.746 191.912 110.046 197.912 109.616 203.822C109.536 204.862 108.307 206.572 107.487 206.632C105.687 206.782 102.946 206.733 102.126 205.623C100.226 203.063 98.1264 199.823 98.1064 196.853C98.0864 191.643 99.5664 186.433 100.416 181.223C101.386 179.793 102.936 178.023 101.146 176.693C99.2864 175.313 98.0765 176.852 97.6865 178.842ZM26.0566 139.933C18.8266 137.753 13.1165 139.783 8.00652 145.813C13.3165 147.643 17.7365 147.853 22.2165 146.523C28.1065 146.893 33.9964 147.593 39.8964 147.583C71.5264 147.503 103.147 147.152 134.777 147.092C157.207 147.052 179.527 145.623 201.737 142.523C209.017 142.343 216.336 142.573 223.566 141.903C282.016 136.493 340.486 138.993 398.936 141.393C433.476 142.813 467.986 144.902 502.526 146.362C513.776 146.842 524.886 146.503 535.336 140.483C541.646 136.853 550.987 138.763 548.617 141.673C545.087 146.003 539.996 144.163 535.636 144.443C529.696 144.823 523.697 143.973 517.717 143.963C494.426 143.923 471.446 140.093 448.296 138.413C426.416 136.833 404.516 135.393 382.716 133.013C347.546 129.173 312.366 128.033 277.216 132.253C256.026 134.803 234.796 135.423 213.526 135.923C209.566 136.013 205.626 136.593 201.676 136.953C172.026 135.703 142.387 133.583 112.737 133.453C83.7565 133.303 54.7066 134.493 26.0566 139.933Z" fill="white"/>
<path d="M471.406 218.532C465.876 213.192 458.046 215.512 454.456 213.112C459.056 213.012 466.126 209.593 473.466 211.563C473.526 214.113 474.016 216.772 471.406 218.532Z" fill="#323232"/>
<path d="M201.686 136.932C205.636 136.582 209.576 136.002 213.536 135.902C234.806 135.402 256.036 134.782 277.226 132.232C312.376 128.012 347.546 129.152 382.726 132.992C404.526 135.372 426.426 136.812 448.306 138.392C471.466 140.062 494.436 143.902 517.726 143.942C523.706 143.952 529.706 144.792 535.646 144.422C540.006 144.142 545.096 145.992 548.626 141.652C550.996 138.742 541.656 136.832 535.346 140.462C524.896 146.482 513.786 146.822 502.536 146.342C467.996 144.882 433.486 142.792 398.946 141.372C340.486 138.972 282.016 136.472 223.576 141.882C216.346 142.552 209.026 142.322 201.746 142.502C201.716 140.652 201.696 138.792 201.686 136.932Z" fill="#323232"/>
<path d="M201.686 136.933C201.706 138.793 201.716 140.653 201.736 142.513C179.526 145.613 157.206 147.043 134.776 147.083C103.146 147.143 71.5262 147.492 39.8962 147.572C34.0062 147.582 28.1163 146.883 22.2163 146.513C23.4963 144.313 24.7764 142.123 26.0564 139.933C54.7064 134.493 83.7563 133.303 112.746 133.433C142.396 133.563 172.036 135.683 201.686 136.933Z" fill="black"/>
</svg>
